<svg role="img" viewBox="0 0 48 48" xmlns="http://www.w3.org/2000/svg" id="Ipfs--Streamline-Simple-Icons" height="48" width="48">
  <desc>
    Ipfs Streamline Icon: https://streamlinehq.com
  </desc>
  <title>IPFS</title>
  <path d="M24 0 3.216 12v24L24 48l20.784 -12V12zm-2.146 2.89h0.002a3.6 3.6 0 0 0 4.276 0l15.068 8.7a3.588 3.588 0 0 0 0 0.806l-15.07 8.7a3.6 3.6 0 0 0 -4.274 0l-15.072 -8.7a3.59 3.59 0 0 0 0 -0.804zM42.648 14.8c0.218 0.16 0.452 0.294 0.698 0.402v17.4a3.6 3.6 0 0 0 -2.138 3.704l-15.07 8.7a3.6 3.6 0 0 0 -0.698 -0.4l-0.018 -17.306a3.6 3.6 0 0 0 2.14 -3.702zm-37.296 0.096 15.07 8.7a3.6 3.6 0 0 0 2.138 3.704v17.4c-0.248 0.108 -0.48 0.244 -0.698 0.404l-15.07 -8.7a3.6 3.6 0 0 0 -2.138 -3.704v-17.4c0.248 -0.108 0.48 -0.244 0.7 -0.404z" fill="#63d4d8" stroke-width="2"></path>
</svg>